<svg width="116" height="99" viewBox="0 0 116 99" fill="none" xmlns="http://www.w3.org/2000/svg">
<path fill-rule="evenodd" clip-rule="evenodd" d="M23 46C35.7026 46 46 35.7026 46 23C46 10.2974 35.7026 0 23 0C10.2974 0 0 10.2974 0 23C0 35.7026 10.2974 46 23 46ZM23 34C29.0752 34 34 29.0751 34 23C34 16.9249 29.0752 12 23 12C16.9248 12 12 16.9249 12 23C12 29.0751 16.9248 34 23 34Z" fill="#AEAEAE"/>
<path fill-rule="evenodd" clip-rule="evenodd" d="M93 46C105.703 46 116 35.7026 116 23C116 10.2974 105.703 0 93 0C80.2974 0 70 10.2974 70 23C70 35.7026 80.2974 46 93 46ZM93 34C99.0752 34 104 29.0751 104 23C104 16.9249 99.0752 12 93 12C86.9248 12 82 16.9249 82 23C82 29.0751 86.9248 34 93 34Z" fill="#AEAEAE"/>
<path fill-rule="evenodd" clip-rule="evenodd" d="M35.4585 56.247L23 62.6334L41.247 98.229L89.3011 73.5956L83.827 62.9169L48.2313 81.1639L35.4585 56.247Z" fill="#AEAEAE"/>
</svg>
